# xmcd CD database file generated by Grip 2.9
# 
# Track frame offsets:
#       150
#       25140
#       41970
#       57140
#       71865
#       88917
#       103592
#       133622
#       151130
#       167182
#       181985
#       199987
# 
# Disc length: 3003 seconds
# 
# Revision: 3
# Processed by: cddbd v1.4b41PL1 Copyright (c) Steve Scherf et al.
# Submitted via: Grip 2.9
# 
DISCID=aa0bb90c
DTITLE=Chuck Pyle - Keepin' Time By The River
DYEAR=1900
DGENRE=
TTITLE0=Keepin' time by The River
TTITLE1=Colorado
TTITLE2=I Can't Go To Mexico
TTITLE3=Other Side Of The Hill
TTITLE4=Sedona Ramona
TTITLE5=Share Me with Texas
TTITLE6=Far Flung Places
TTITLE7=Jaded Lover
TTITLE8=The Remember Song
TTITLE9=Stars
TTITLE10=Mile High Feeling
TTITLE11=Step By Step
EXTD=
EXTT0=
EXTT1=
EXTT2=
EXTT3=
EXTT4=
EXTT5=
EXTT6=
EXTT7=
EXTT8=
EXTT9=
EXTT10=
EXTT11=
PLAYORDER=
